<?xml version="1.0" encoding="UTF-8" standalone="no"?>
<!-- Created with Inkscape (http://www.inkscape.org/) -->

<svg
   xmlns:dc="http://purl.org/dc/elements/1.1/"
   xmlns:cc="http://creativecommons.org/ns#"
   xmlns:rdf="http://www.w3.org/1999/02/22-rdf-syntax-ns#"
   xmlns:svg="http://www.w3.org/2000/svg"
   xmlns="http://www.w3.org/2000/svg"
   xmlns:sodipodi="http://sodipodi.sourceforge.net/DTD/sodipodi-0.dtd"
   xmlns:inkscape="http://www.inkscape.org/namespaces/inkscape"
   width="132.29166mm"
   height="65.654663mm"
   viewBox="0 0 468.74997 232.63463"
   id="svg6197"
   version="1.1"
   inkscape:version="0.92.3 (2405546, 2018-03-11)"
   sodipodi:docname="DGT logo.svg">
  <title
     id="title6945">DGT logo</title>
  <defs
     id="defs6199">
    <inkscape:path-effect
       effect="spiro"
       id="path-effect1533"
       is_visible="true" />
    <inkscape:path-effect
       effect="spiro"
       id="path-effect1528"
       is_visible="true" />
  </defs>
  <sodipodi:namedview
     id="base"
     pagecolor="#ffffff"
     bordercolor="#666666"
     borderopacity="1.0"
     inkscape:pageopacity="0.0"
     inkscape:pageshadow="2"
     inkscape:zoom="1"
     inkscape:cx="233.13342"
     inkscape:cy="166.97385"
     inkscape:document-units="px"
     inkscape:current-layer="g1722"
     showgrid="false"
     fit-margin-top="0"
     fit-margin-left="0"
     fit-margin-right="0"
     fit-margin-bottom="0.1"
     inkscape:window-width="1366"
     inkscape:window-height="705"
     inkscape:window-x="-8"
     inkscape:window-y="-8"
     inkscape:window-maximized="1"
     showguides="true"
     inkscape:guide-bbox="true"
     inkscape:object-paths="false"
     inkscape:snap-intersection-paths="false"
     inkscape:snap-smooth-nodes="false"
     inkscape:object-nodes="false" />
  <metadata
     id="metadata6202">
    <rdf:RDF>
      <cc:Work
         rdf:about="">
        <dc:format>image/svg+xml</dc:format>
        <dc:type
           rdf:resource="http://purl.org/dc/dcmitype/StillImage" />
        <dc:title>DGT logo</dc:title>
        <dc:date>16/11/2016</dc:date>
        <dc:creator>
          <cc:Agent>
            <dc:title>DGT</dc:title>
          </cc:Agent>
        </dc:creator>
        <dc:publisher>
          <cc:Agent>
            <dc:title>CMetalCore</dc:title>
          </cc:Agent>
        </dc:publisher>
        <cc:license
           rdf:resource="http://creativecommons.org/licenses/by-sa/4.0/" />
        <dc:description>Font &quot;Direcci칩n General de Tr치fico:
HelvLight</dc:description>
      </cc:Work>
      <cc:License
         rdf:about="http://creativecommons.org/licenses/by-sa/4.0/">
        <cc:permits
           rdf:resource="http://creativecommons.org/ns#Reproduction" />
        <cc:permits
           rdf:resource="http://creativecommons.org/ns#Distribution" />
        <cc:requires
           rdf:resource="http://creativecommons.org/ns#Notice" />
        <cc:requires
           rdf:resource="http://creativecommons.org/ns#Attribution" />
        <cc:permits
           rdf:resource="http://creativecommons.org/ns#DerivativeWorks" />
        <cc:requires
           rdf:resource="http://creativecommons.org/ns#ShareAlike" />
      </cc:License>
    </rdf:RDF>
  </metadata>
  <g
     inkscape:label="Capa 1"
     inkscape:groupmode="layer"
     id="layer1"
     transform="translate(-34.913646,-67.111778)">
    <g
       aria-label="Direcci칩n General"
       transform="matrix(0.97870709,0,-0.07763014,0.99215971,468.26791,-124.68766)"
       style="font-style:normal;font-weight:normal;font-size:40px;line-height:125%;font-family:sans-serif;letter-spacing:0px;word-spacing:4.26000023px;opacity:1;fill:#000000;fill-opacity:1;stroke:none;stroke-width:1px;stroke-linecap:butt;stroke-linejoin:miter;stroke-opacity:1"
       id="flowRoot1549" />
    <g
       id="g1722"
       transform="matrix(0.92997892,0,0,0.92997892,2.4446913,20.963759)">
      <g
         id="g1772">
        <g
           id="g1760">
          <path
             sodipodi:nodetypes="ccccccccccccscccc"
             inkscape:connector-curvature="0"
             id="path1513"
             d="m 457.17198,204.97759 c 0.46497,-1.38627 23.90149,-81.60304 24.2652,-83.05332 l 0.27215,-1.08502 h -17.20581 l -16.96906,-4.6e-4 c 0,-17.19395 6.96007,-19.72717 11.07311,-19.72717 h 44.03697 c 34.7064,0 34.10996,0 36.31277,0 -5.286,19.72763 0,0 -5.286,19.72763 h -15.34116 -15.34118 l -0.57785,1.97125 c -0.31785,1.08419 -5.87788,20.25945 -12.35568,42.61168 l -11.77784,40.64043 h -10.73476 -10.73483 z"
             style="fill:#005892;fill-opacity:1" />
          <path
             sodipodi:nodetypes="ccsccccccsccsccccccscccsssccc"
             inkscape:connector-curvature="0"
             id="path1511"
             d="m 350.97044,205.47536 c -6.22059,-1.35319 -9.87712,-4.96051 -10.86448,-10.71832 -0.40419,-2.35706 -0.38154,-3.29193 0.14312,-5.90706 1.24963,-6.22869 17.6845,-62.18543 19.08235,-64.97072 5.78599,-11.52902 15.04196,-18.55319 28.77084,-21.83369 2.37856,-0.56834 6.06111,-0.68242 26.53367,-0.82187 l 23.78467,-0.007 c 0,10.50597 -3.6777,19.476 -9.67942,19.81961 v 0 l -17.95214,0.22503 c -15.238,0.19102 -18.31006,0.32653 -20.31946,0.89629 -3.35249,0.95056 -6.88604,2.75407 -8.91376,4.54951 -3.46085,3.06441 -3.7137,3.75327 -11.96983,32.6104 -4.21816,14.74346 -7.63476,26.84091 -7.59244,26.88324 0.0423,0.0423 6.46673,0.13415 14.27648,0.20409 l 14.19955,0.12718 v 0 c 5.20313,0 8.33888,-5.30768 13.26806,-21.89767 -9.29595,0 -7.31654,-0.001 -9.29595,0 h -9.43358 c 0,0 0.6946,-2.26565 1.37856,-4.03918 1.49807,-3.88464 4.74184,-9.28067 9.22005,-9.28067 16.26734,-0.0128 10.84858,-0.008 16.26734,-0.0128 8.95141,-0.0633 0,0 16.30711,0.0128 0,0 -2.53039,8.95029 -5.58421,19.39094 -6.22398,21.2791 -6.70401,22.42192 -11.38353,27.10084 -4.03742,4.0369 -8.88046,6.52953 -14.95891,7.69904 -4.04325,0.77794 -41.68447,0.75284 -45.28409,-0.0303 z"
             style="fill:#005892;fill-opacity:1" />
          <path
             sodipodi:nodetypes="csccscsccsccccssccsccc"
             inkscape:connector-curvature="0"
             d="m 229.80879,205.9413 14.29619,-49.59232 c 7.72587,-26.80042 14.4915,-50.19201 15.03129,-51.9823 l 0.98144,-3.25506 h 23.74791 c 14.89282,0 26.02833,0.0404 29.14406,0.29252 23.00643,2.81938 28.18736,19.00943 20.24931,50.60363 -3.67136,14.61236 -7.99514,25.31414 -13.09941,32.42221 -2.01,2.79912 -6.57722,7.61721 -9.38962,9.90539 -4.23409,3.44492 -11.95956,7.73143 -16.77975,9.31034 -8.71021,2.85313 -6.38943,2.30409 -36.38218,2.30409 l -27.79924,-0.008 z m 51.27935,-19.62617 c 9.53117,-0.72134 14.56473,-2.54222 19.2527,-6.96462 5.36764,-5.06356 9.04992,-12.78353 12.60666,-26.43022 4.58761,-17.60197 3.49932,-26.60112 -3.63516,-30.05958 -3.79248,-1.83842 -6.19337,-2.06215 -20.78679,-1.93706 l -13.1697,0.11287 -9.41817,32.55059 c -5.17999,17.90284 -9.41829,32.68376 -9.41843,32.84651 -3.2e-4,0.44228 18.32738,0.35386 24.56889,-0.11849 z"
             style="fill:#005892;fill-opacity:1"
             id="path6762" />
        </g>
        <g
           aria-label="de Tr치fico"
           transform="matrix(0.9879359,0,-0.07836216,0.99215971,42.345589,0.16632618)"
           style="font-style:normal;font-weight:normal;font-size:40px;line-height:125%;font-family:sans-serif;letter-spacing:0px;word-spacing:4.26000023px;opacity:1;fill:#000000;fill-opacity:1;stroke:none;stroke-width:1px;stroke-linecap:butt;stroke-linejoin:miter;stroke-opacity:1"
           id="flowRoot1565">
          <path
             id="path1618"
             style="font-style:italic;font-variant:normal;font-weight:normal;font-stretch:normal;font-family:HelvLight;-inkscape-font-specification:'HelvLight Italic';word-spacing:1.81809807px;fill:#000000"
             d="m 363.06732,290.67032 q -0.96,4.8 -4.16,7.88 -3.16,3.04 -7.6,3.04 -4.16,0 -6.24,-2.76 -2.24,-3 -1.2,-8.12 0.96,-4.96 4.08,-7.96 3.16,-3 7.68,-3 4.6,0 6.56,3.08 1.84,2.96 0.88,7.84 z m -2.6,0.08 q 0.8,-4 -0.28,-6.24 -1.28,-2.6 -4.96,-2.6 -3.36,0 -5.68,2.4 -2.32,2.4 -3.12,6.36 -0.84,4.12 0.56,6.44 1.44,2.32 4.76,2.32 3.48,0 5.88,-2.68 2.12,-2.36 2.84,-6 z m -20.70563,3.12 q -1.56,4.04 -4.52,6 -2.6,1.72 -5.88,1.72 -4.92,0 -6.76,-3.24 -1.6,-2.88 -0.64,-7.64 0.88,-4.52 3.84,-7.56 3.32,-3.4 7.88,-3.4 3.64,0 5.48,1.72 1.84,1.72 1.68,5.36 h -2.44 q -0.16,-2.52 -1.56,-3.72 -1.36,-1.2 -3.56,-1.2 -3.36,0 -5.72,2.52 -2.32,2.52 -3.04,6.28 -0.76,3.76 0.4,6.08 1.36,2.64 4.88,2.64 2.6,0 4.52,-1.48 1.96,-1.48 2.88,-4.08 z m -19.86625,-18.08 h -2.64 l 0.72,-3.56 h 2.64 z m -5.16,25.24 h -2.4 l 4.16,-20.72 h 2.4 z m -2.69375,-18.72 h -4 l -3.76,18.72 h -2.4 l 3.76,-18.72 h -3.08 l 0.4,-2 h 3.08 l 0.64,-3.28 q 0.56,-2.8 1.92,-4.08 1.4,-1.28 3.48,-1.28 0.52,0 0.92,0 0.44,0 1.12,0.16 l -0.44,2.2 q -0.4,-0.08 -0.68,-0.12 -0.28,-0.08 -0.72,-0.08 -1.32,0 -2.12,0.8 -0.76,0.8 -1.12,2.64 l -0.6,3.04 h 4 z m -14.94562,18.64 q -0.72,0.24 -1.08,0.32 -0.36,0.08 -0.88,0.08 -1.56,0 -2.08,-0.6 -0.64,-0.72 -0.28,-2.6 -1.96,1.8 -4.28,2.68 -2.04,0.76 -4.12,0.76 -2.96,0 -4.56,-1.52 -1.72,-1.64 -1.16,-4.44 0.56,-2.76 2.92,-4.36 2.12,-1.44 5.56,-1.88 l 3.08,-0.4 q 0.92,-0.12 1.84,-0.24 1.6,-0.24 2.2,-0.76 0.64,-0.52 0.88,-1.84 0.4,-2 -0.64,-3.12 -1,-1.12 -3.6,-1.12 -2.96,0 -4.6,1.12 -1.64,1.12 -2.44,3.56 h -2.44 q 0.6,-3 3.04,-4.84 2.68,-2 6.84,-2 3.32,0 4.96,1.32 2,1.64 1.28,5.2 l -2.24,11.2 q -0.4,1.92 0.68,1.92 0.6,0 1.52,-0.32 z m -3.4,-7.56 0.64,-3.24 q -1.88,0.72 -4.36,0.96 -4.6,0.48 -5.92,1.08 -2.36,1.08 -2.84,3.48 -0.36,1.72 0.72,2.76 1.12,1 3.12,1 2.92,0 5.28,-1.4 2.76,-1.64 3.36,-4.64 z m 4.12,-20.88 -6.6,5.56 h -2.04 l 5.56,-5.56 z m -19.51844,9.84 q -2.12,0 -3.68,0.72 -1.56,0.72 -2.72,2.36 -1.44,2.08 -2.08,5.24 l -2.08,10.36 h -2.4 l 4.16,-20.72 h 2.4 l -0.8,3.88 q 1.56,-2.6 3.68,-3.64 1.64,-0.8 4.04,-0.8 z m -7.71281,-7.8 h -9.12 l -5.28,26.48 h -2.72 l 5.28,-26.48 h -9.12 l 0.48,-2.32 h 20.96 z m -39.65748,16.68 h -16.08 q -0.76,3.72 0.68,5.96 1.44,2.24 4.68,2.24 2.2,0 4.08,-1.12 2.08,-1.28 3.12,-3.64 h 2.68 q -1.6,3.2 -3.88,4.88 -2.68,2.04 -6.4,2.04 -5.04,0 -6.84,-3.36 -1.52,-2.84 -0.6,-7.4 0.96,-4.72 4.04,-7.8 3.28,-3.28 7.68,-3.28 4.52,0 6.28,3.16 1.64,3 0.56,8.32 z m -2.16,-2 q 0.6,-3.08 -0.52,-5.04 -1.28,-2.28 -4.56,-2.28 -2.68,0 -4.84,1.76 -2.4,1.92 -3.6,5.56 z m -23.41312,11.8 h -2.4 l 0.72,-3.64 q -1.44,1.96 -3.76,3.08 -2.32,1.12 -4.4,1.12 -4.4,0 -6.24,-2.72 -1.96,-2.84 -0.92,-8.12 0.92,-4.56 3.64,-7.52 3.16,-3.48 7.88,-3.48 2.32,0 4.12,1.12 1.8,1.08 2.44,2.76 l 2.28,-11.4 h 2.4 z m -0.32,-10.4 q 0.76,-3.88 -0.76,-6.28 -1.48,-2.44 -4.52,-2.44 -3.36,0 -5.72,2.44 -2.32,2.44 -3.12,6.48 -0.44,2.24 -0.24,3.88 0.24,1.6 1.16,2.84 0.72,0.88 1.76,1.4 1.08,0.48 2.56,0.48 3.56,0 6,-2.72 2.16,-2.4 2.88,-6.08 z M 515.21516,258.555 h -2.37758 l 5.68485,-28.8 h 2.37758 z m -6.48453,-0.08 q -0.7131,0.24 -1.06968,0.32 -0.35658,0.08 -0.87172,0.08 -1.54542,0 -2.06101,-0.6 -0.63456,-0.72 -0.27931,-2.6 -1.94036,1.8 -4.23804,2.68 -2.02038,0.76 -4.08095,0.76 -2.93234,0 -4.51852,-1.52 -1.70515,-1.64 -1.15246,-4.44 0.55273,-2.76 2.88949,-4.36 2.09913,-1.44 5.50667,-1.88 l 3.05093,-0.4 q 0.91132,-0.12 1.82264,-0.24 1.58487,-0.24 2.17888,-0.76 0.63364,-0.52 0.87042,-1.84 0.39478,-2 -0.63633,-3.12 -0.99149,-1.12 -3.5672,-1.12 -2.93235,0 -4.5562,1.12 -1.62385,1.12 -2.41457,3.56 h -2.41721 q 0.59217,-3 3.00802,-4.84 2.65348,-2 6.77462,-2 3.28899,0 4.91464,1.32 1.98254,1.64 1.2719,5.2 l -2.21078,11.2 q -0.39484,1.92 0.67507,1.92 0.5944,0 1.50557,-0.32 z m -3.37384,-7.56 0.63162,-3.24 q -1.86191,0.72 -4.31856,0.96 -4.55668,0.48 -5.8639,1.08 -2.33715,1.08 -2.81089,3.48 -0.35537,1.72 0.71532,2.76 1.11028,1 3.09159,1 2.89272,0 5.22964,-1.4 2.733,-1.64 3.32518,-4.64 z m -15.22408,-11.04 q -2.1002,0 -3.64509,0.72 -1.5449,0.72 -2.69285,2.36 -1.425,2.08 -2.05668,5.24 l -2.0529,10.36 h -2.37758 l 4.10579,-20.72 h 2.37758 l -0.78965,3.88 q 1.5435,-2.6 3.64292,-3.64 1.62409,-0.8 4.00167,-0.8 z m -15.67121,8.88 h -15.92979 q -0.75014,3.72 0.67807,5.96 1.4282,2.24 4.63794,2.24 2.17945,0 4.04105,-1.12 2.05963,-1.28 3.08816,-3.64 h 2.65497 q -1.58269,3.2 -3.84014,4.88 -2.65346,2.04 -6.33871,2.04 -4.99291,0 -6.77859,-3.36 -1.5079,-2.84 -0.59988,-7.4 0.94754,-4.72 3.99648,-7.8 3.24693,-3.28 7.60583,-3.28 4.47778,0 6.22368,3.16 1.6269,3 0.56093,8.32 z m -2.1413,-2 q 0.59211,-3.08 -0.51888,-5.04 -1.26973,-2.28 -4.51909,-2.28 -2.65497,0 -4.79349,1.76 -2.37615,1.92 -3.56225,5.56 z m -22.96031,11.8 h -2.37758 l 2.68451,-13.6 q 1.10545,-5.52 -4.12523,-5.52 -3.80413,0 -6.13962,3.32 -1.14792,1.68 -1.66125,4.12 l -2.28968,11.68 h -2.37758 l 4.10579,-20.72 h 2.37758 l -0.59226,2.88 q 1.94041,-1.72 3.64373,-2.56 1.7429,-0.88 3.64497,-0.88 1.62468,0 2.9327,0.48 1.34762,0.44 2.14095,1.52 0.83292,1.04 0.99235,2.28 0.15942,1.24 -0.23545,3.12 z m -19.01367,-9.8 h -15.92979 q -0.75014,3.72 0.67807,5.96 1.4282,2.24 4.63794,2.24 2.17945,0 4.04105,-1.12 2.05962,-1.28 3.08816,-3.64 h 2.65497 q -1.58269,3.2 -3.84014,4.88 -2.65346,2.04 -6.33871,2.04 -4.99292,0 -6.77859,-3.36 -1.50791,-2.84 -0.59988,-7.4 0.94754,-4.72 3.99648,-7.8 3.24693,-3.28 7.60583,-3.28 4.47778,0 6.22368,3.16 1.6269,3 0.56093,8.32 z m -2.1413,-2 q 0.59211,-3.08 -0.51888,-5.04 -1.26973,-2.28 -4.51909,-2.28 -2.65497,0 -4.79349,1.76 -2.37615,1.92 -3.56225,5.56 z m -23.30517,11.8 h -2.29833 l 0.98701,-4.92 q -2.13774,2.8 -5.0294,4.24 -2.89165,1.44 -6.65616,1.44 -6.22133,0 -8.68143,-4.4 -2.26169,-4.04 -0.87984,-10.88 1.3422,-6.88 5.5,-10.88 4.35582,-4.16 10.57715,-4.16 4.71554,0 7.45147,2.32 2.73591,2.28 2.73926,6.8 h -2.77384 q -0.0816,-3.2 -2.26241,-5 -2.14116,-1.8 -5.39052,-1.8 -5.34955,0 -8.83388,3.76 -3.24676,3.52 -4.51006,9.92 -1.02652,5.08 1.07617,8.44 2.18209,3.56 6.89762,3.56 4.16077,0 7.36854,-2.64 1.70287,-1.44 2.89012,-3.52 1.18725,-2.08 1.73997,-4.84 h -9.6292 l 0.43417,-2.32 h 12.20491 z m -45.66873,0 h -2.37758 l 2.68451,-13.6 q 1.10545,-5.52 -4.12523,-5.52 -3.80413,0 -6.13962,3.32 -1.14792,1.68 -1.66125,4.12 l -2.28968,11.68 h -2.37758 l 4.10579,-20.72 h 2.37758 l -0.59226,2.88 q 1.94041,-1.72 3.64372,-2.56 1.74291,-0.88 3.64497,-0.88 1.62468,0 2.93271,0.48 1.34762,0.44 2.14095,1.52 0.83292,1.04 0.99235,2.28 0.15942,1.24 -0.23545,3.12 z m -18.61781,-10.36 q -0.94748,4.8 -4.1153,7.88 -3.12823,3.04 -7.52676,3.04 -4.12114,0 -6.18375,-2.76 -2.2213,-3 -1.19481,-8.12 0.94736,-4.96 4.03599,-7.96 3.12826,-3 7.60604,-3 4.55703,0 6.501,3.08 1.825,2.96 0.87759,7.84 z m -2.57566,0.08 q 0.78957,-4 -0.282,-6.24 -1.26997,-2.6 -4.9156,-2.6 -3.32861,0 -5.62516,2.4 -2.29655,2.4 -3.08614,6.36 -0.8291,4.12 0.55954,6.44 1.42827,2.32 4.71725,2.32 3.44749,0 5.82309,-2.68 2.09845,-2.36 2.80902,-6 z m 1.84893,-18.24 -6.53423,5.56 h -2.02094 l 5.50394,-5.56 z m -19.99525,3.28 h -2.61534 l 0.71063,-3.56 h 2.61534 z m -5.0931,25.24 h -2.37758 l 4.10579,-20.72 h 2.37758 z m -6.09352,-7.16 q -1.54244,4.04 -4.47334,6 -2.57443,1.72 -5.82379,1.72 -4.87404,0 -6.69926,-3.24 -1.58718,-2.88 -0.63968,-7.64 0.86843,-4.52 3.79853,-7.56 3.28647,-3.4 7.80387,-3.4 3.606,0 5.43008,1.72 1.82409,1.72 1.66828,5.36 h -2.41721 q -0.16037,-2.52 -1.54818,-3.72 -1.34818,-1.2 -3.52763,-1.2 -3.32862,0 -5.6647,2.52 -2.29646,2.52 -3.00695,6.28 -0.75012,3.76 0.40077,6.08 1.34925,2.64 4.83637,2.64 2.57571,0 4.47668,-1.48 1.94059,-1.48 2.85007,-4.08 z m -22.05763,0 q -1.54243,4.04 -4.47333,6 -2.57444,1.72 -5.8238,1.72 -4.87404,0 -6.69925,-3.24 -1.58719,-2.88 -0.63968,-7.64 0.86843,-4.52 3.79852,-7.56 3.28647,-3.4 7.80387,-3.4 3.606,0 5.43009,1.72 1.82408,1.72 1.66827,5.36 h -2.4172 q -0.16037,-2.52 -1.54819,-3.72 -1.34818,-1.2 -3.52763,-1.2 -3.32861,0 -5.6647,2.52 -2.29646,2.52 -3.00695,6.28 -0.75011,3.76 0.40077,6.08 1.34925,2.64 4.83637,2.64 2.57571,0 4.47668,-1.48 1.94059,-1.48 2.85007,-4.08 z m -21.46427,-2.64 h -15.92978 q -0.75015,3.72 0.67806,5.96 1.42821,2.24 4.63794,2.24 2.17945,0 4.04106,-1.12 2.05962,-1.28 3.08816,-3.64 h 2.65496 q -1.58268,3.2 -3.84014,4.88 -2.65345,2.04 -6.3387,2.04 -4.99292,0 -6.7786,-3.36 -1.5079,-2.84 -0.59987,-7.4 0.94753,-4.72 3.99648,-7.8 3.24693,-3.28 7.60582,-3.28 4.47778,0 6.22368,3.16 1.6269,3 0.56093,8.32 z m -2.1413,-2 q 0.59211,-3.08 -0.51888,-5.04 -1.26973,-2.28 -4.51909,-2.28 -2.65496,0 -4.79348,1.76 -2.37616,1.92 -3.56225,5.56 z m -16.82183,-6.88 q -2.1002,0 -3.64509,0.72 -1.5449,0.72 -2.69284,2.36 -1.42501,2.08 -2.05669,5.24 l -2.0529,10.36 h -2.37758 l 4.10579,-20.72 h 2.37758 l -0.78965,3.88 q 1.5435,-2.6 3.64293,-3.64 1.62408,-0.8 4.00166,-0.8 z m -13.93971,-6.56 h -2.61534 l 0.71063,-3.56 h 2.61534 z m -5.0931,25.24 h -2.37758 l 4.10579,-20.72 h 2.37758 z m -4.87112,-14.44 q -1.46063,7.48 -6.09404,11.36 -1.82165,1.56 -4.27792,2.32 -2.41665,0.76 -5.86414,0.76 h -9.90658 l 5.68485,-28.8 h 10.18397 q 3.24936,0 5.35009,0.72 2.14033,0.68 3.52855,2.44 1.30889,1.64 1.66781,4.72 0.39854,3.08 -0.27259,6.48 z m -2.69459,0 q 0.67122,-3.28 0.35246,-5.64 -0.27916,-2.4 -1.42939,-3.84 -1.15026,-1.48 -2.97346,-2 -1.7836,-0.56 -4.91408,-0.56 h -6.57797 l -4.73726,24.16 h 6.97423 q 2.77385,0 4.83394,-0.64 2.06007,-0.68 3.52532,-1.92 1.90088,-1.6 3.12752,-4 1.22661,-2.44 1.81869,-5.56 z"
             inkscape:connector-curvature="0" />
        </g>
        <g
           id="g1710">
          <path
             inkscape:connector-curvature="0"
             id="rect1524"
             transform="matrix(0.93750003,0,0,0.93750003,33.990794,49.880852)"
             d="M 8.5390625,96.732422 0.984375,124.92773 H 191.75781 l 7.55469,-28.195308 z"
             style="opacity:1;fill:#0087d0;fill-opacity:1;fill-rule:nonzero;stroke:none;stroke-width:1.48334301;stroke-linecap:butt;stroke-linejoin:miter;stroke-miterlimit:4;stroke-dasharray:none;stroke-dashoffset:0;stroke-opacity:1;paint-order:fill markers stroke" />
          <path
             inkscape:connector-curvature="0"
             id="path6794"
             transform="matrix(0.93750003,0,0,0.93750003,33.990794,49.880852)"
             d="m 132.81055,138.81641 c -47.130625,0 -56.493939,0.0992 -60.564456,0.63281 -18.680912,2.44884 -34.009523,11.25903 -43.984375,25.2832 -4.746685,6.6736 -6.15039,10.20691 -13.511719,33.9707 -3.71379,11.98885 -6.840378,22.60157 -6.6191406,22.60157 H 49.222656 90.449219 c 2.336224,-7.90514 4.528391,-15.85093 6.791015,-23.77735 5.073426,-17.96089 6.035406,-20.7085 8.281246,-23.66015 1.7516,-2.30209 5.73787,-5.04195 8.88672,-6.10742 2.78236,-0.94148 3.00766,-0.9493 34.52149,-1.16211 l 31.7207,-0.21485 7.38672,-27.5664 z"
             style="fill:#005892;fill-opacity:1;stroke-width:1.0666666" />
          <path
             style="fill:#005892;fill-opacity:1;stroke-width:1"
             d="m 97.418526,126.95542 c 44.184964,0 52.963074,-0.093 56.779184,-0.59326 17.51336,-2.29578 31.88393,-10.55534 41.23535,-23.703 4.45002,-6.256499 5.76599,-9.568979 12.66724,-31.847529 3.48168,-11.23955 6.41285,-21.18898 6.20544,-21.18898 h -38.52356 -38.6499 c -2.19021,7.41108 -4.24537,14.86025 -6.36658,22.29127 -4.75633,16.83834 -5.65819,19.41422 -7.76366,22.18139 -1.64213,2.15821 -5.37926,4.72683 -8.3313,5.72571 -2.60847,0.882639 -2.81969,0.889969 -32.363904,1.089479 l -29.738161,0.20142 -6.92505,25.8435 z"
             id="path1567"
             inkscape:connector-curvature="0" />
        </g>
      </g>
    </g>
  </g>
</svg>
